<mxfile host="app.diagrams.net" agent="Mozilla/5.0 (Macintosh; Intel Mac OS X 10.15; rv:130.0) Gecko/20100101 Firefox/130.0" version="24.7.17">
  <diagram id="C5RBs43oDa-KdzZeNtuy" name="Page-1">
    <mxGraphModel dx="1060" dy="1773" grid="1" gridSize="10" guides="1" tooltips="1" connect="1" arrows="1" fold="1" page="1" pageScale="1" pageWidth="827" pageHeight="1169" background="#ffffff" math="0" shadow="0">
      <root>
        <mxCell id="WIyWlLk6GJQsqaUBKTNV-0" />
        <mxCell id="WIyWlLk6GJQsqaUBKTNV-1" parent="WIyWlLk6GJQsqaUBKTNV-0" />
        <mxCell id="76qIheIjIqnIHze1jOvI-4" value="Inventory" style="swimlane;fontStyle=1;align=center;verticalAlign=top;childLayout=stackLayout;horizontal=1;startSize=26;horizontalStack=0;resizeParent=1;resizeParentMax=0;resizeLast=0;collapsible=1;marginBottom=0;whiteSpace=wrap;html=1;fillColor=#9AC7BF;swimlaneFillColor=#9AC7BF;" parent="WIyWlLk6GJQsqaUBKTNV-1" vertex="1">
          <mxGeometry x="375" y="-46" width="200" height="160" as="geometry" />
        </mxCell>
        <mxCell id="76qIheIjIqnIHze1jOvI-5" value="- itemList: ArrayList&amp;lt;Item&amp;gt;" style="text;strokeColor=none;fillColor=none;align=left;verticalAlign=top;spacingLeft=4;spacingRight=4;overflow=hidden;rotatable=0;points=[[0,0.5],[1,0.5]];portConstraint=eastwest;whiteSpace=wrap;html=1;" parent="76qIheIjIqnIHze1jOvI-4" vertex="1">
          <mxGeometry y="26" width="200" height="34" as="geometry" />
        </mxCell>
        <mxCell id="_3AJ94oyX9AFuhV5-iff-18" value="" style="line;strokeWidth=1;fillColor=none;align=left;verticalAlign=middle;spacingTop=-1;spacingLeft=3;spacingRight=3;rotatable=0;labelPosition=right;points=[];portConstraint=eastwest;strokeColor=inherit;" vertex="1" parent="76qIheIjIqnIHze1jOvI-4">
          <mxGeometry y="60" width="200" height="8" as="geometry" />
        </mxCell>
        <mxCell id="76qIheIjIqnIHze1jOvI-7" value="&lt;div&gt;&lt;span data-darkreader-inline-color=&quot;&quot; data-darkreader-inline-bgcolor=&quot;&quot; style=&quot;background-color: initial; color: rgb(0, 0, 0); --darkreader-inline-bgcolor: initial; --darkreader-inline-color: #e8e6e3;&quot;&gt;+ getItems(): ArrayList&amp;lt;Item&amp;gt;&lt;/span&gt;&lt;br&gt;&lt;/div&gt;&lt;div&gt;+ addItem(Item): void&lt;br&gt;&lt;/div&gt;&lt;div&gt;+ removeitem(Item) void&lt;br&gt;&lt;/div&gt;" style="text;strokeColor=none;fillColor=none;align=left;verticalAlign=top;spacingLeft=4;spacingRight=4;overflow=hidden;rotatable=0;points=[[0,0.5],[1,0.5]];portConstraint=eastwest;whiteSpace=wrap;html=1;" parent="76qIheIjIqnIHze1jOvI-4" vertex="1">
          <mxGeometry y="68" width="200" height="92" as="geometry" />
        </mxCell>
        <mxCell id="76qIheIjIqnIHze1jOvI-8" value="abstract class &lt;i&gt;Item&lt;/i&gt;" style="swimlane;fontStyle=1;align=center;verticalAlign=top;childLayout=stackLayout;horizontal=1;startSize=26;horizontalStack=0;resizeParent=1;resizeParentMax=0;resizeLast=0;collapsible=1;marginBottom=0;whiteSpace=wrap;html=1;fillColor=#FFE599;swimlaneFillColor=#FFE599;" parent="WIyWlLk6GJQsqaUBKTNV-1" vertex="1">
          <mxGeometry x="380" y="210" width="190" height="130" as="geometry" />
        </mxCell>
        <mxCell id="76qIheIjIqnIHze1jOvI-9" value="- name: String&lt;div&gt;- weight: int&lt;/div&gt;&lt;div&gt;- goldValue: int&lt;/div&gt;" style="text;strokeColor=none;fillColor=none;align=left;verticalAlign=top;spacingLeft=4;spacingRight=4;overflow=hidden;rotatable=0;points=[[0,0.5],[1,0.5]];portConstraint=eastwest;whiteSpace=wrap;html=1;" parent="76qIheIjIqnIHze1jOvI-8" vertex="1">
          <mxGeometry y="26" width="190" height="64" as="geometry" />
        </mxCell>
        <mxCell id="76qIheIjIqnIHze1jOvI-10" value="" style="line;strokeWidth=1;fillColor=none;align=left;verticalAlign=middle;spacingTop=-1;spacingLeft=3;spacingRight=3;rotatable=0;labelPosition=right;points=[];portConstraint=eastwest;strokeColor=inherit;" parent="76qIheIjIqnIHze1jOvI-8" vertex="1">
          <mxGeometry y="90" width="190" height="8" as="geometry" />
        </mxCell>
        <mxCell id="76qIheIjIqnIHze1jOvI-11" value="&lt;div&gt;+ &lt;/div&gt;" style="text;strokeColor=none;fillColor=none;align=left;verticalAlign=top;spacingLeft=4;spacingRight=4;overflow=hidden;rotatable=0;points=[[0,0.5],[1,0.5]];portConstraint=eastwest;whiteSpace=wrap;html=1;" parent="76qIheIjIqnIHze1jOvI-8" vertex="1">
          <mxGeometry y="98" width="190" height="32" as="geometry" />
        </mxCell>
        <mxCell id="Y_zbtXDFNSpmOWqjWYgW-4" value="class Armor" style="swimlane;fontStyle=1;align=center;verticalAlign=top;childLayout=stackLayout;horizontal=1;startSize=26;horizontalStack=0;resizeParent=1;resizeParentMax=0;resizeLast=0;collapsible=1;marginBottom=0;whiteSpace=wrap;html=1;fillColor=#e1d5e7;strokeColor=#9673a6;swimlaneFillColor=#E1D5E7;" parent="WIyWlLk6GJQsqaUBKTNV-1" vertex="1">
          <mxGeometry x="460" y="499" width="230" height="160" as="geometry" />
        </mxCell>
        <mxCell id="Y_zbtXDFNSpmOWqjWYgW-5" value="&lt;div&gt;- armorValue: int&lt;/div&gt;&lt;div&gt;- defenseType: DamageType&lt;/div&gt;&lt;div&gt;- equippableOn: EquimentSlot&lt;/div&gt;" style="text;strokeColor=none;fillColor=none;align=left;verticalAlign=top;spacingLeft=4;spacingRight=4;overflow=hidden;rotatable=0;points=[[0,0.5],[1,0.5]];portConstraint=eastwest;whiteSpace=wrap;html=1;" parent="Y_zbtXDFNSpmOWqjWYgW-4" vertex="1">
          <mxGeometry y="26" width="230" height="64" as="geometry" />
        </mxCell>
        <mxCell id="Y_zbtXDFNSpmOWqjWYgW-6" value="" style="line;strokeWidth=1;fillColor=none;align=left;verticalAlign=middle;spacingTop=-1;spacingLeft=3;spacingRight=3;rotatable=0;labelPosition=right;points=[];portConstraint=eastwest;strokeColor=#9673A6;" parent="Y_zbtXDFNSpmOWqjWYgW-4" vertex="1">
          <mxGeometry y="90" width="230" height="8" as="geometry" />
        </mxCell>
        <mxCell id="Y_zbtXDFNSpmOWqjWYgW-7" value="&lt;div&gt;+ damageMitigation(): void&lt;br&gt;&lt;/div&gt;&lt;div&gt;&lt;div&gt;+ equip(Player, EquipmentSlot): boolean&lt;br&gt;&lt;/div&gt;&lt;div&gt;+ unequip(Player): void&lt;br&gt;&lt;/div&gt;&lt;/div&gt;" style="text;strokeColor=none;fillColor=none;align=left;verticalAlign=top;spacingLeft=4;spacingRight=4;overflow=hidden;rotatable=0;points=[[0,0.5],[1,0.5]];portConstraint=eastwest;whiteSpace=wrap;html=1;" parent="Y_zbtXDFNSpmOWqjWYgW-4" vertex="1">
          <mxGeometry y="98" width="230" height="62" as="geometry" />
        </mxCell>
        <mxCell id="Y_zbtXDFNSpmOWqjWYgW-8" value="class Consumable" style="swimlane;fontStyle=1;align=center;verticalAlign=top;childLayout=stackLayout;horizontal=1;startSize=26;horizontalStack=0;resizeParent=1;resizeParentMax=0;resizeLast=0;collapsible=1;marginBottom=0;whiteSpace=wrap;html=1;fillColor=#e1d5e7;strokeColor=#9673a6;swimlaneFillColor=#E1D5E7;" parent="WIyWlLk6GJQsqaUBKTNV-1" vertex="1">
          <mxGeometry x="710" y="499" width="160" height="120" as="geometry" />
        </mxCell>
        <mxCell id="RlSCZmG_0VpKmQy92OfU-8" value="&lt;div&gt;- consumableValue: int&lt;/div&gt;&lt;div&gt;- statType: statType&lt;br&gt;&lt;/div&gt;" style="text;html=1;align=left;verticalAlign=middle;resizable=0;points=[];autosize=1;strokeColor=none;fillColor=none;" parent="Y_zbtXDFNSpmOWqjWYgW-8" vertex="1">
          <mxGeometry y="26" width="160" height="40" as="geometry" />
        </mxCell>
        <mxCell id="Y_zbtXDFNSpmOWqjWYgW-10" value="" style="line;strokeWidth=1;fillColor=none;align=left;verticalAlign=middle;spacingTop=-1;spacingLeft=3;spacingRight=3;rotatable=0;labelPosition=right;points=[];portConstraint=eastwest;strokeColor=inherit;" parent="Y_zbtXDFNSpmOWqjWYgW-8" vertex="1">
          <mxGeometry y="66" width="160" height="24" as="geometry" />
        </mxCell>
        <mxCell id="Y_zbtXDFNSpmOWqjWYgW-11" value="+ use(Player): void" style="text;strokeColor=none;fillColor=none;align=left;verticalAlign=top;spacingLeft=4;spacingRight=4;overflow=hidden;rotatable=0;points=[[0,0.5],[1,0.5]];portConstraint=eastwest;whiteSpace=wrap;html=1;" parent="Y_zbtXDFNSpmOWqjWYgW-8" vertex="1">
          <mxGeometry y="90" width="160" height="30" as="geometry" />
        </mxCell>
        <mxCell id="76qIheIjIqnIHze1jOvI-12" value="«interface»&lt;br&gt;&lt;b&gt;Equippable&lt;/b&gt;&lt;div&gt;+equip(Player, EquipmentSlot): boolean&lt;br&gt;&lt;/div&gt;&lt;div&gt;+unequip(Player): void&lt;br&gt;&lt;/div&gt;" style="html=1;whiteSpace=wrap;fillColor=#f8cecc;strokeColor=#b85450;" parent="WIyWlLk6GJQsqaUBKTNV-1" vertex="1">
          <mxGeometry x="610" y="210" width="220" height="74" as="geometry" />
        </mxCell>
        <mxCell id="76qIheIjIqnIHze1jOvI-13" value="«interface»&lt;br&gt;&lt;div&gt;&lt;b&gt;Usable&lt;br&gt;&lt;/b&gt;&lt;/div&gt;&lt;div&gt;+ use(Player): void&lt;/div&gt;" style="html=1;whiteSpace=wrap;fillColor=#f8cecc;strokeColor=#b85450;" parent="WIyWlLk6GJQsqaUBKTNV-1" vertex="1">
          <mxGeometry x="660" y="328" width="130" height="50" as="geometry" />
        </mxCell>
        <mxCell id="76qIheIjIqnIHze1jOvI-16" style="edgeStyle=orthogonalEdgeStyle;rounded=0;orthogonalLoop=1;jettySize=auto;html=1;entryX=0.475;entryY=1.004;entryDx=0;entryDy=0;entryPerimeter=0;" parent="WIyWlLk6GJQsqaUBKTNV-1" source="Y_zbtXDFNSpmOWqjWYgW-4" target="76qIheIjIqnIHze1jOvI-11" edge="1">
          <mxGeometry relative="1" as="geometry">
            <Array as="points">
              <mxPoint x="550" y="450" />
              <mxPoint x="470" y="450" />
            </Array>
            <mxPoint x="470" y="420" as="targetPoint" />
          </mxGeometry>
        </mxCell>
        <mxCell id="Y_zbtXDFNSpmOWqjWYgW-13" value="" style="endArrow=diamondThin;endFill=0;endSize=24;html=1;rounded=0;exitX=0.5;exitY=0;exitDx=0;exitDy=0;entryX=0.5;entryY=0.984;entryDx=0;entryDy=0;entryPerimeter=0;" parent="WIyWlLk6GJQsqaUBKTNV-1" source="76qIheIjIqnIHze1jOvI-8" target="76qIheIjIqnIHze1jOvI-7" edge="1">
          <mxGeometry width="160" relative="1" as="geometry">
            <mxPoint x="150" y="210" as="sourcePoint" />
            <mxPoint x="460" y="170" as="targetPoint" />
          </mxGeometry>
        </mxCell>
        <mxCell id="Y_zbtXDFNSpmOWqjWYgW-16" value="" style="rounded=0;orthogonalLoop=1;jettySize=auto;html=1;endArrow=halfCircle;endFill=0;endSize=6;strokeWidth=1;sketch=0;" parent="WIyWlLk6GJQsqaUBKTNV-1" edge="1">
          <mxGeometry relative="1" as="geometry">
            <mxPoint x="740" y="499" as="sourcePoint" />
            <mxPoint x="740" y="420" as="targetPoint" />
            <Array as="points" />
          </mxGeometry>
        </mxCell>
        <mxCell id="Y_zbtXDFNSpmOWqjWYgW-17" value="" style="rounded=0;orthogonalLoop=1;jettySize=auto;html=1;endArrow=oval;endFill=0;sketch=0;sourcePerimeterSpacing=0;targetPerimeterSpacing=0;endSize=10;exitX=0.615;exitY=1.003;exitDx=0;exitDy=0;exitPerimeter=0;" parent="WIyWlLk6GJQsqaUBKTNV-1" source="76qIheIjIqnIHze1jOvI-13" edge="1">
          <mxGeometry relative="1" as="geometry">
            <mxPoint x="740" y="390" as="sourcePoint" />
            <mxPoint x="740" y="420" as="targetPoint" />
          </mxGeometry>
        </mxCell>
        <mxCell id="Y_zbtXDFNSpmOWqjWYgW-18" value="" style="ellipse;whiteSpace=wrap;html=1;align=center;aspect=fixed;fillColor=none;strokeColor=none;resizable=0;perimeter=centerPerimeter;rotatable=0;allowArrows=0;points=[];outlineConnect=1;" parent="WIyWlLk6GJQsqaUBKTNV-1" vertex="1">
          <mxGeometry x="740" y="420" width="10" height="10" as="geometry" />
        </mxCell>
        <mxCell id="Y_zbtXDFNSpmOWqjWYgW-19" value="" style="rounded=0;orthogonalLoop=1;jettySize=auto;html=1;endArrow=halfCircle;endFill=0;endSize=6;strokeWidth=1;sketch=0;exitX=0.652;exitY=0.001;exitDx=0;exitDy=0;exitPerimeter=0;" parent="WIyWlLk6GJQsqaUBKTNV-1" edge="1">
          <mxGeometry relative="1" as="geometry">
            <mxPoint x="574.9999999999999" y="498.9979999999998" as="sourcePoint" />
            <mxPoint x="640" y="420" as="targetPoint" />
            <Array as="points">
              <mxPoint x="575" y="470" />
              <mxPoint x="640" y="470" />
            </Array>
          </mxGeometry>
        </mxCell>
        <mxCell id="Y_zbtXDFNSpmOWqjWYgW-20" value="" style="rounded=0;orthogonalLoop=1;jettySize=auto;html=1;endArrow=oval;endFill=0;sketch=0;sourcePerimeterSpacing=0;targetPerimeterSpacing=0;endSize=10;exitX=0.136;exitY=0.973;exitDx=0;exitDy=0;exitPerimeter=0;" parent="WIyWlLk6GJQsqaUBKTNV-1" source="76qIheIjIqnIHze1jOvI-12" edge="1">
          <mxGeometry relative="1" as="geometry">
            <mxPoint x="690" y="300" as="sourcePoint" />
            <mxPoint x="640" y="420" as="targetPoint" />
          </mxGeometry>
        </mxCell>
        <mxCell id="Y_zbtXDFNSpmOWqjWYgW-21" value="" style="ellipse;whiteSpace=wrap;html=1;align=center;aspect=fixed;fillColor=none;strokeColor=none;resizable=0;perimeter=centerPerimeter;rotatable=0;allowArrows=0;points=[];outlineConnect=1;" parent="WIyWlLk6GJQsqaUBKTNV-1" vertex="1">
          <mxGeometry x="409" y="630" width="10" height="10" as="geometry" />
        </mxCell>
        <mxCell id="Y_zbtXDFNSpmOWqjWYgW-22" value="" style="rounded=0;orthogonalLoop=1;jettySize=auto;html=1;endArrow=halfCircle;endFill=0;endSize=6;strokeWidth=1;sketch=0;exitX=0.682;exitY=0.005;exitDx=0;exitDy=0;exitPerimeter=0;" parent="WIyWlLk6GJQsqaUBKTNV-1" source="76qIheIjIqnIHze1jOvI-23" edge="1">
          <mxGeometry relative="1" as="geometry">
            <mxPoint x="250.80000000000018" y="540.616" as="sourcePoint" />
            <mxPoint x="580" y="420" as="targetPoint" />
            <Array as="points">
              <mxPoint x="360" y="460" />
              <mxPoint x="580" y="460" />
            </Array>
          </mxGeometry>
        </mxCell>
        <mxCell id="Y_zbtXDFNSpmOWqjWYgW-23" value="" style="rounded=0;orthogonalLoop=1;jettySize=auto;html=1;endArrow=oval;endFill=0;sketch=0;sourcePerimeterSpacing=0;targetPerimeterSpacing=0;endSize=10;exitX=0;exitY=0.405;exitDx=0;exitDy=0;exitPerimeter=0;" parent="WIyWlLk6GJQsqaUBKTNV-1" source="76qIheIjIqnIHze1jOvI-12" edge="1">
          <mxGeometry relative="1" as="geometry">
            <mxPoint x="600" y="240" as="sourcePoint" />
            <mxPoint x="580" y="420" as="targetPoint" />
            <Array as="points">
              <mxPoint x="580" y="240" />
            </Array>
          </mxGeometry>
        </mxCell>
        <mxCell id="Y_zbtXDFNSpmOWqjWYgW-24" value="" style="ellipse;whiteSpace=wrap;html=1;align=center;aspect=fixed;fillColor=none;strokeColor=none;resizable=0;perimeter=centerPerimeter;rotatable=0;allowArrows=0;points=[];outlineConnect=1;" parent="WIyWlLk6GJQsqaUBKTNV-1" vertex="1">
          <mxGeometry x="279" y="610" width="10" height="10" as="geometry" />
        </mxCell>
        <mxCell id="76qIheIjIqnIHze1jOvI-23" value="class Weapon" style="swimlane;fontStyle=1;align=center;verticalAlign=top;childLayout=stackLayout;horizontal=1;startSize=26;horizontalStack=0;resizeParent=1;resizeParentMax=0;resizeLast=0;collapsible=1;marginBottom=0;whiteSpace=wrap;html=1;fillColor=#E1D5E7;swimlaneFillColor=#E1D5E7;strokeColor=#9673A6;" parent="WIyWlLk6GJQsqaUBKTNV-1" vertex="1">
          <mxGeometry x="210" y="499" width="220" height="158" as="geometry" />
        </mxCell>
        <mxCell id="76qIheIjIqnIHze1jOvI-24" value="&lt;div&gt;- damageValue: int&lt;/div&gt;&lt;div&gt;- damageType: DamageType&lt;/div&gt;&lt;div&gt;- equippableOn: EquimentSlot&lt;br&gt;&lt;/div&gt;" style="text;strokeColor=none;fillColor=none;align=left;verticalAlign=top;spacingLeft=4;spacingRight=4;overflow=hidden;rotatable=0;points=[[0,0.5],[1,0.5]];portConstraint=eastwest;whiteSpace=wrap;html=1;" parent="76qIheIjIqnIHze1jOvI-23" vertex="1">
          <mxGeometry y="26" width="220" height="64" as="geometry" />
        </mxCell>
        <mxCell id="76qIheIjIqnIHze1jOvI-25" value="" style="line;strokeWidth=1;fillColor=#E1D5E7;align=left;verticalAlign=middle;spacingTop=-1;spacingLeft=3;spacingRight=3;rotatable=0;labelPosition=right;points=[];portConstraint=eastwest;strokeColor=#9673A6;fillStyle=auto;perimeterSpacing=0;" parent="76qIheIjIqnIHze1jOvI-23" vertex="1">
          <mxGeometry y="90" width="220" height="8" as="geometry" />
        </mxCell>
        <mxCell id="76qIheIjIqnIHze1jOvI-26" value="&lt;div&gt;+ attack(): void&lt;br&gt;&lt;/div&gt;&lt;div&gt;&lt;div&gt;+ equip(Player, EquipmentSlot): bolean&lt;br&gt;&lt;/div&gt;&lt;div&gt;+ unequip(Player): void&lt;br&gt;&lt;/div&gt;&lt;/div&gt;" style="text;strokeColor=none;fillColor=none;align=left;verticalAlign=top;spacingLeft=4;spacingRight=4;overflow=hidden;rotatable=0;points=[[0,0.5],[1,0.5]];portConstraint=eastwest;whiteSpace=wrap;html=1;" parent="76qIheIjIqnIHze1jOvI-23" vertex="1">
          <mxGeometry y="98" width="220" height="60" as="geometry" />
        </mxCell>
        <mxCell id="76qIheIjIqnIHze1jOvI-31" value="class Player" style="swimlane;fontStyle=1;align=center;verticalAlign=top;childLayout=stackLayout;horizontal=1;startSize=26;horizontalStack=0;resizeParent=1;resizeParentMax=0;resizeLast=0;collapsible=1;marginBottom=0;whiteSpace=wrap;html=1;fillColor=#fff2cc;strokeColor=#d6b656;swimlaneFillColor=#FFF2CC;" parent="WIyWlLk6GJQsqaUBKTNV-1" vertex="1">
          <mxGeometry x="660" y="-46" width="260" height="240" as="geometry" />
        </mxCell>
        <mxCell id="76qIheIjIqnIHze1jOvI-32" value="&lt;div&gt;- name: String&lt;br&gt;&lt;/div&gt;&lt;div&gt;- healthPoints: int&lt;/div&gt;&lt;div&gt;- mana: int&lt;/div&gt;&lt;div&gt;- gold: int&lt;br&gt;&lt;/div&gt;&lt;div&gt;- inventory: Inventory&lt;/div&gt;&lt;div&gt;&lt;div&gt;- equippedItems: HashMap&amp;lt;Equipmentslot, Item&amp;gt;&lt;/div&gt;&lt;/div&gt;" style="text;strokeColor=none;fillColor=none;align=left;verticalAlign=top;spacingLeft=4;spacingRight=4;overflow=hidden;rotatable=0;points=[[0,0.5],[1,0.5]];portConstraint=eastwest;whiteSpace=wrap;html=1;" parent="76qIheIjIqnIHze1jOvI-31" vertex="1">
          <mxGeometry y="26" width="260" height="134" as="geometry" />
        </mxCell>
        <mxCell id="76qIheIjIqnIHze1jOvI-33" value="" style="line;strokeWidth=1;fillColor=none;align=left;verticalAlign=middle;spacingTop=-1;spacingLeft=3;spacingRight=3;rotatable=0;labelPosition=right;points=[];portConstraint=eastwest;strokeColor=inherit;" parent="76qIheIjIqnIHze1jOvI-31" vertex="1">
          <mxGeometry y="160" width="260" height="8" as="geometry" />
        </mxCell>
        <mxCell id="76qIheIjIqnIHze1jOvI-34" value="&lt;div&gt;+ addItemToInventory(Item): void&lt;br&gt;&lt;/div&gt;&lt;div&gt;+ removeItemFromInventory(Item): void&lt;br&gt;&lt;/div&gt;&lt;div&gt;+ equipItem(EquipmentSlot, Item): boolean&lt;br&gt;&lt;/div&gt;" style="text;strokeColor=none;fillColor=none;align=left;verticalAlign=top;spacingLeft=4;spacingRight=4;overflow=hidden;rotatable=0;points=[[0,0.5],[1,0.5]];portConstraint=eastwest;whiteSpace=wrap;html=1;" parent="76qIheIjIqnIHze1jOvI-31" vertex="1">
          <mxGeometry y="168" width="260" height="72" as="geometry" />
        </mxCell>
        <mxCell id="zVwZTeZ9vrngOVBs7xeL-0" value="" style="endArrow=diamondThin;endFill=1;endSize=24;html=1;rounded=0;entryX=-0.009;entryY=0.649;entryDx=0;entryDy=0;entryPerimeter=0;exitX=0.998;exitY=0.491;exitDx=0;exitDy=0;exitPerimeter=0;" parent="WIyWlLk6GJQsqaUBKTNV-1" target="76qIheIjIqnIHze1jOvI-32" edge="1" source="76qIheIjIqnIHze1jOvI-7">
          <mxGeometry width="160" relative="1" as="geometry">
            <mxPoint x="590" y="80" as="sourcePoint" />
            <mxPoint x="579" y="109.98599999999999" as="targetPoint" />
          </mxGeometry>
        </mxCell>
        <mxCell id="Y_zbtXDFNSpmOWqjWYgW-52" value="&lt;font style=&quot;font-size: 14px;&quot;&gt;1...1&lt;/font&gt;" style="text;html=1;align=center;verticalAlign=middle;resizable=0;points=[];autosize=1;strokeColor=none;fillColor=none;" parent="WIyWlLk6GJQsqaUBKTNV-1" vertex="1">
          <mxGeometry x="590" y="40" width="50" height="30" as="geometry" />
        </mxCell>
        <mxCell id="Y_zbtXDFNSpmOWqjWYgW-53" value="&lt;font style=&quot;font-size: 18px;&quot;&gt;0...*&lt;/font&gt;" style="text;html=1;align=center;verticalAlign=middle;resizable=0;points=[];autosize=1;strokeColor=none;fillColor=none;rotation=270;" parent="WIyWlLk6GJQsqaUBKTNV-1" vertex="1">
          <mxGeometry x="430" y="170" width="60" height="40" as="geometry" />
        </mxCell>
        <mxCell id="Y_zbtXDFNSpmOWqjWYgW-57" value="enum DamageType" style="swimlane;fontStyle=1;align=center;verticalAlign=top;childLayout=stackLayout;horizontal=1;startSize=26;horizontalStack=0;resizeParent=1;resizeParentMax=0;resizeLast=0;collapsible=1;marginBottom=0;whiteSpace=wrap;html=1;strokeColor=#000000;fillColor=#A9C4EB;swimlaneFillColor=#A9C4EB;" parent="WIyWlLk6GJQsqaUBKTNV-1" vertex="1">
          <mxGeometry x="70" y="337" width="190" height="56" as="geometry" />
        </mxCell>
        <mxCell id="Y_zbtXDFNSpmOWqjWYgW-58" value="&lt;div align=&quot;center&quot;&gt;PHYSICAL,MAGICAL&lt;/div&gt;" style="text;html=1;align=center;verticalAlign=middle;resizable=0;points=[];autosize=1;strokeColor=#000000;fillColor=#A9C4EB;" parent="Y_zbtXDFNSpmOWqjWYgW-57" vertex="1">
          <mxGeometry y="26" width="190" height="30" as="geometry" />
        </mxCell>
        <mxCell id="Y_zbtXDFNSpmOWqjWYgW-59" value="" style="line;strokeWidth=1;fillColor=#A9C4EB;align=left;verticalAlign=middle;spacingTop=-1;spacingLeft=3;spacingRight=3;rotatable=0;labelPosition=right;points=[];portConstraint=eastwest;strokeColor=#A9C4EB;" parent="Y_zbtXDFNSpmOWqjWYgW-57" vertex="1">
          <mxGeometry y="56" width="190" as="geometry" />
        </mxCell>
        <mxCell id="_3AJ94oyX9AFuhV5-iff-29" style="edgeStyle=orthogonalEdgeStyle;rounded=0;orthogonalLoop=1;jettySize=auto;html=1;entryX=0.475;entryY=1.004;entryDx=0;entryDy=0;entryPerimeter=0;exitX=0.542;exitY=-0.017;exitDx=0;exitDy=0;exitPerimeter=0;" edge="1" parent="WIyWlLk6GJQsqaUBKTNV-1" source="Y_zbtXDFNSpmOWqjWYgW-8" target="76qIheIjIqnIHze1jOvI-11">
          <mxGeometry relative="1" as="geometry">
            <Array as="points">
              <mxPoint x="797" y="450" />
              <mxPoint x="470" y="450" />
            </Array>
            <mxPoint x="550" y="499" as="sourcePoint" />
            <mxPoint x="470" y="410" as="targetPoint" />
          </mxGeometry>
        </mxCell>
        <mxCell id="_3AJ94oyX9AFuhV5-iff-32" style="edgeStyle=orthogonalEdgeStyle;rounded=0;orthogonalLoop=1;jettySize=auto;html=1;entryX=0.475;entryY=1.004;entryDx=0;entryDy=0;entryPerimeter=0;exitX=0.562;exitY=0.008;exitDx=0;exitDy=0;exitPerimeter=0;" edge="1" parent="WIyWlLk6GJQsqaUBKTNV-1" source="76qIheIjIqnIHze1jOvI-23" target="76qIheIjIqnIHze1jOvI-11">
          <mxGeometry relative="1" as="geometry">
            <Array as="points">
              <mxPoint x="334" y="450" />
              <mxPoint x="470" y="450" />
            </Array>
            <mxPoint x="352" y="490" as="sourcePoint" />
            <mxPoint x="470" y="410" as="targetPoint" />
          </mxGeometry>
        </mxCell>
        <mxCell id="_3AJ94oyX9AFuhV5-iff-35" value="enum EquipmentSlot" style="swimlane;fontStyle=1;align=center;verticalAlign=top;childLayout=stackLayout;horizontal=1;startSize=26;horizontalStack=0;resizeParent=1;resizeParentMax=0;resizeLast=0;collapsible=1;marginBottom=0;whiteSpace=wrap;html=1;fillColor=#A9C4EB;swimlaneFillColor=#A9C4EB;" vertex="1" parent="WIyWlLk6GJQsqaUBKTNV-1">
          <mxGeometry x="70" y="247" width="190" height="66" as="geometry" />
        </mxCell>
        <mxCell id="_3AJ94oyX9AFuhV5-iff-36" value="&lt;div align=&quot;center&quot;&gt;HEAD, TORSO, ARMR,&amp;nbsp;&lt;/div&gt;&lt;div align=&quot;center&quot;&gt;ARML, LEGR, LEGL&lt;/div&gt;" style="text;html=1;align=center;verticalAlign=middle;resizable=0;points=[];autosize=1;strokeColor=none;fillColor=none;" vertex="1" parent="_3AJ94oyX9AFuhV5-iff-35">
          <mxGeometry y="26" width="190" height="40" as="geometry" />
        </mxCell>
        <mxCell id="_3AJ94oyX9AFuhV5-iff-38" value="" style="html=1;verticalAlign=bottom;endArrow=open;dashed=1;endSize=8;curved=0;rounded=0;exitX=0.332;exitY=-0.003;exitDx=0;exitDy=0;exitPerimeter=0;entryX=0.992;entryY=0.16;entryDx=0;entryDy=0;entryPerimeter=0;" edge="1" parent="WIyWlLk6GJQsqaUBKTNV-1" source="Y_zbtXDFNSpmOWqjWYgW-4" target="_3AJ94oyX9AFuhV5-iff-36">
          <mxGeometry relative="1" as="geometry">
            <mxPoint x="520" y="498" as="sourcePoint" />
            <mxPoint x="310" y="250" as="targetPoint" />
            <Array as="points">
              <mxPoint x="536" y="480" />
              <mxPoint x="400" y="480" />
              <mxPoint x="310" y="480" />
              <mxPoint x="310" y="367" />
              <mxPoint x="310" y="330" />
              <mxPoint x="310" y="279" />
            </Array>
          </mxGeometry>
        </mxCell>
        <mxCell id="_3AJ94oyX9AFuhV5-iff-54" style="edgeStyle=orthogonalEdgeStyle;rounded=0;orthogonalLoop=1;jettySize=auto;html=1;exitX=1;exitY=0.5;exitDx=0;exitDy=0;entryX=0.317;entryY=1.024;entryDx=0;entryDy=0;entryPerimeter=0;" edge="1" parent="WIyWlLk6GJQsqaUBKTNV-1" source="_3AJ94oyX9AFuhV5-iff-100" target="76qIheIjIqnIHze1jOvI-26">
          <mxGeometry relative="1" as="geometry">
            <mxPoint x="280" y="680" as="targetPoint" />
            <mxPoint x="240" y="910" as="sourcePoint" />
            <Array as="points">
              <mxPoint x="280" y="920" />
            </Array>
          </mxGeometry>
        </mxCell>
        <mxCell id="_3AJ94oyX9AFuhV5-iff-58" style="edgeStyle=orthogonalEdgeStyle;rounded=0;orthogonalLoop=1;jettySize=auto;html=1;exitX=0.486;exitY=0;exitDx=0;exitDy=0;exitPerimeter=0;" edge="1" parent="WIyWlLk6GJQsqaUBKTNV-1" source="_3AJ94oyX9AFuhV5-iff-103">
          <mxGeometry relative="1" as="geometry">
            <mxPoint x="780" y="619" as="targetPoint" />
            <mxPoint x="760" y="790" as="sourcePoint" />
            <Array as="points">
              <mxPoint x="840" y="800" />
              <mxPoint x="840" y="720" />
              <mxPoint x="780" y="720" />
            </Array>
          </mxGeometry>
        </mxCell>
        <mxCell id="_3AJ94oyX9AFuhV5-iff-59" value="class Shop" style="swimlane;fontStyle=1;align=center;verticalAlign=top;childLayout=stackLayout;horizontal=1;startSize=26;horizontalStack=0;resizeParent=1;resizeParentMax=0;resizeLast=0;collapsible=1;marginBottom=0;whiteSpace=wrap;html=1;fillColor=#fff2cc;strokeColor=#d6b656;swimlaneFillColor=#FFF2CC;" vertex="1" parent="WIyWlLk6GJQsqaUBKTNV-1">
          <mxGeometry x="49" y="-46" width="240" height="164" as="geometry" />
        </mxCell>
        <mxCell id="_3AJ94oyX9AFuhV5-iff-60" value="&lt;div&gt;- inventory: Inventory&lt;/div&gt;&lt;div&gt;- shopMenu: ShopMenu&lt;br&gt;&lt;/div&gt;" style="text;strokeColor=none;fillColor=none;align=left;verticalAlign=top;spacingLeft=4;spacingRight=4;overflow=hidden;rotatable=0;points=[[0,0.5],[1,0.5]];portConstraint=eastwest;whiteSpace=wrap;html=1;" vertex="1" parent="_3AJ94oyX9AFuhV5-iff-59">
          <mxGeometry y="26" width="240" height="44" as="geometry" />
        </mxCell>
        <mxCell id="_3AJ94oyX9AFuhV5-iff-61" value="" style="line;strokeWidth=1;fillColor=none;align=left;verticalAlign=middle;spacingTop=-1;spacingLeft=3;spacingRight=3;rotatable=0;labelPosition=right;points=[];portConstraint=eastwest;strokeColor=inherit;" vertex="1" parent="_3AJ94oyX9AFuhV5-iff-59">
          <mxGeometry y="70" width="240" height="8" as="geometry" />
        </mxCell>
        <mxCell id="_3AJ94oyX9AFuhV5-iff-62" value="&lt;div&gt;+ buyItem(Player, Item): void&lt;/div&gt;&lt;div&gt;+ sellItem(Player, Item): void&lt;br&gt;&lt;/div&gt;" style="text;strokeColor=none;fillColor=none;align=left;verticalAlign=top;spacingLeft=4;spacingRight=4;overflow=hidden;rotatable=0;points=[[0,0.5],[1,0.5]];portConstraint=eastwest;whiteSpace=wrap;html=1;" vertex="1" parent="_3AJ94oyX9AFuhV5-iff-59">
          <mxGeometry y="78" width="240" height="86" as="geometry" />
        </mxCell>
        <mxCell id="_3AJ94oyX9AFuhV5-iff-64" value="" style="endArrow=diamondThin;endFill=1;endSize=24;html=1;rounded=0;" edge="1" parent="WIyWlLk6GJQsqaUBKTNV-1">
          <mxGeometry width="160" relative="1" as="geometry">
            <mxPoint x="375" y="40" as="sourcePoint" />
            <mxPoint x="288" y="40" as="targetPoint" />
          </mxGeometry>
        </mxCell>
        <mxCell id="_3AJ94oyX9AFuhV5-iff-66" value="«interface»&lt;br&gt;&lt;b&gt;Menu&lt;/b&gt;&lt;br&gt;&lt;div&gt;+ displayMenuAndGetInput(Scanner)&lt;/div&gt;&lt;div&gt;+ handleMenuInput(int, Player, Scanner)&lt;/div&gt;" style="html=1;whiteSpace=wrap;fillColor=#f8cecc;strokeColor=#b85450;" vertex="1" parent="WIyWlLk6GJQsqaUBKTNV-1">
          <mxGeometry x="350" y="-265" width="250" height="60" as="geometry" />
        </mxCell>
        <mxCell id="_3AJ94oyX9AFuhV5-iff-67" value="class ShopMenu" style="swimlane;fontStyle=1;align=center;verticalAlign=top;childLayout=stackLayout;horizontal=1;startSize=26;horizontalStack=0;resizeParent=1;resizeParentMax=0;resizeLast=0;collapsible=1;marginBottom=0;whiteSpace=wrap;html=1;fillColor=#DAE8FC;swimlaneFillColor=#DAE8FC;strokeColor=#6c8ebf;" vertex="1" parent="WIyWlLk6GJQsqaUBKTNV-1">
          <mxGeometry x="49" y="-310" width="231" height="140" as="geometry" />
        </mxCell>
        <mxCell id="_3AJ94oyX9AFuhV5-iff-68" value="- shop: Shop" style="text;strokeColor=none;fillColor=none;align=left;verticalAlign=top;spacingLeft=4;spacingRight=4;overflow=hidden;rotatable=0;points=[[0,0.5],[1,0.5]];portConstraint=eastwest;whiteSpace=wrap;html=1;" vertex="1" parent="_3AJ94oyX9AFuhV5-iff-67">
          <mxGeometry y="26" width="231" height="44" as="geometry" />
        </mxCell>
        <mxCell id="_3AJ94oyX9AFuhV5-iff-69" value="" style="line;strokeWidth=1;fillColor=none;align=left;verticalAlign=middle;spacingTop=-1;spacingLeft=3;spacingRight=3;rotatable=0;labelPosition=right;points=[];portConstraint=eastwest;strokeColor=inherit;" vertex="1" parent="_3AJ94oyX9AFuhV5-iff-67">
          <mxGeometry y="70" width="231" height="8" as="geometry" />
        </mxCell>
        <mxCell id="_3AJ94oyX9AFuhV5-iff-70" value="&lt;div&gt;+ displayMenuAndGetInput(Scanner)&lt;/div&gt;&lt;div&gt;+ handleMenuInput(int, Player, Scanner)&lt;/div&gt;" style="text;strokeColor=none;fillColor=none;align=left;verticalAlign=top;spacingLeft=4;spacingRight=4;overflow=hidden;rotatable=0;points=[[0,0.5],[1,0.5]];portConstraint=eastwest;whiteSpace=wrap;html=1;" vertex="1" parent="_3AJ94oyX9AFuhV5-iff-67">
          <mxGeometry y="78" width="231" height="62" as="geometry" />
        </mxCell>
        <mxCell id="_3AJ94oyX9AFuhV5-iff-72" value="" style="rounded=0;orthogonalLoop=1;jettySize=auto;html=1;endArrow=halfCircle;endFill=0;endSize=6;strokeWidth=1;sketch=0;exitX=1;exitY=0.61;exitDx=0;exitDy=0;exitPerimeter=0;" edge="1" parent="WIyWlLk6GJQsqaUBKTNV-1" source="_3AJ94oyX9AFuhV5-iff-69">
          <mxGeometry relative="1" as="geometry">
            <mxPoint x="300" y="-235" as="sourcePoint" />
            <mxPoint x="320" y="-235.12" as="targetPoint" />
          </mxGeometry>
        </mxCell>
        <mxCell id="_3AJ94oyX9AFuhV5-iff-73" value="" style="rounded=0;orthogonalLoop=1;jettySize=auto;html=1;endArrow=oval;endFill=0;sketch=0;sourcePerimeterSpacing=0;targetPerimeterSpacing=0;endSize=10;exitX=0;exitY=0.5;exitDx=0;exitDy=0;" edge="1" parent="WIyWlLk6GJQsqaUBKTNV-1" source="_3AJ94oyX9AFuhV5-iff-66">
          <mxGeometry relative="1" as="geometry">
            <mxPoint x="610" y="-175" as="sourcePoint" />
            <mxPoint x="320" y="-235" as="targetPoint" />
          </mxGeometry>
        </mxCell>
        <mxCell id="_3AJ94oyX9AFuhV5-iff-74" value="" style="ellipse;whiteSpace=wrap;html=1;align=center;aspect=fixed;fillColor=none;strokeColor=none;resizable=0;perimeter=centerPerimeter;rotatable=0;allowArrows=0;points=[];outlineConnect=1;" vertex="1" parent="WIyWlLk6GJQsqaUBKTNV-1">
          <mxGeometry x="310" y="-290" width="10" height="10" as="geometry" />
        </mxCell>
        <mxCell id="_3AJ94oyX9AFuhV5-iff-75" value="class PlayerMenu" style="swimlane;fontStyle=1;align=center;verticalAlign=top;childLayout=stackLayout;horizontal=1;startSize=26;horizontalStack=0;resizeParent=1;resizeParentMax=0;resizeLast=0;collapsible=1;marginBottom=0;whiteSpace=wrap;html=1;fillColor=#DAE8FC;swimlaneFillColor=#DAE8FC;strokeColor=#6C8EBF;" vertex="1" parent="WIyWlLk6GJQsqaUBKTNV-1">
          <mxGeometry x="680" y="-300" width="231" height="130" as="geometry" />
        </mxCell>
        <mxCell id="_3AJ94oyX9AFuhV5-iff-76" value="+ " style="text;strokeColor=none;fillColor=none;align=left;verticalAlign=top;spacingLeft=4;spacingRight=4;overflow=hidden;rotatable=0;points=[[0,0.5],[1,0.5]];portConstraint=eastwest;whiteSpace=wrap;html=1;" vertex="1" parent="_3AJ94oyX9AFuhV5-iff-75">
          <mxGeometry y="26" width="231" height="34" as="geometry" />
        </mxCell>
        <mxCell id="_3AJ94oyX9AFuhV5-iff-77" value="" style="line;strokeWidth=1;fillColor=none;align=left;verticalAlign=middle;spacingTop=-1;spacingLeft=3;spacingRight=3;rotatable=0;labelPosition=right;points=[];portConstraint=eastwest;strokeColor=inherit;" vertex="1" parent="_3AJ94oyX9AFuhV5-iff-75">
          <mxGeometry y="60" width="231" height="8" as="geometry" />
        </mxCell>
        <mxCell id="_3AJ94oyX9AFuhV5-iff-78" value="&lt;div&gt;+ displayMenuAndGetInput(Scanner)&lt;/div&gt;&lt;div&gt;+ handleMenuInput(int, Player, Scanner)&lt;/div&gt;" style="text;strokeColor=none;fillColor=none;align=left;verticalAlign=top;spacingLeft=4;spacingRight=4;overflow=hidden;rotatable=0;points=[[0,0.5],[1,0.5]];portConstraint=eastwest;whiteSpace=wrap;html=1;" vertex="1" parent="_3AJ94oyX9AFuhV5-iff-75">
          <mxGeometry y="68" width="231" height="62" as="geometry" />
        </mxCell>
        <mxCell id="_3AJ94oyX9AFuhV5-iff-80" value="" style="endArrow=diamondThin;endFill=1;endSize=24;html=1;rounded=0;exitX=0.481;exitY=1;exitDx=0;exitDy=0;exitPerimeter=0;entryX=0.464;entryY=0.008;entryDx=0;entryDy=0;entryPerimeter=0;startArrow=open;startFill=0;" edge="1" parent="WIyWlLk6GJQsqaUBKTNV-1" source="_3AJ94oyX9AFuhV5-iff-70" target="_3AJ94oyX9AFuhV5-iff-59">
          <mxGeometry width="160" relative="1" as="geometry">
            <mxPoint x="160" y="-140" as="sourcePoint" />
            <mxPoint x="260" y="-110" as="targetPoint" />
          </mxGeometry>
        </mxCell>
        <mxCell id="_3AJ94oyX9AFuhV5-iff-84" value="" style="rounded=0;orthogonalLoop=1;jettySize=auto;html=1;endArrow=halfCircle;endFill=0;endSize=6;strokeWidth=1;sketch=0;exitX=0.002;exitY=1.002;exitDx=0;exitDy=0;exitPerimeter=0;" edge="1" parent="WIyWlLk6GJQsqaUBKTNV-1" source="_3AJ94oyX9AFuhV5-iff-76">
          <mxGeometry relative="1" as="geometry">
            <mxPoint x="670" y="-240" as="sourcePoint" />
            <mxPoint x="640" y="-240.29" as="targetPoint" />
          </mxGeometry>
        </mxCell>
        <mxCell id="_3AJ94oyX9AFuhV5-iff-85" value="" style="rounded=0;orthogonalLoop=1;jettySize=auto;html=1;endArrow=oval;endFill=0;sketch=0;sourcePerimeterSpacing=0;targetPerimeterSpacing=0;endSize=10;exitX=1;exitY=0.5;exitDx=0;exitDy=0;" edge="1" parent="WIyWlLk6GJQsqaUBKTNV-1">
          <mxGeometry relative="1" as="geometry">
            <mxPoint x="600" y="-240" as="sourcePoint" />
            <mxPoint x="640" y="-239.76" as="targetPoint" />
          </mxGeometry>
        </mxCell>
        <mxCell id="_3AJ94oyX9AFuhV5-iff-86" value="" style="ellipse;whiteSpace=wrap;html=1;align=center;aspect=fixed;fillColor=none;strokeColor=none;resizable=0;perimeter=centerPerimeter;rotatable=0;allowArrows=0;points=[];outlineConnect=1;" vertex="1" parent="WIyWlLk6GJQsqaUBKTNV-1">
          <mxGeometry x="675" y="-240" width="10" height="10" as="geometry" />
        </mxCell>
        <mxCell id="_3AJ94oyX9AFuhV5-iff-94" style="edgeStyle=orthogonalEdgeStyle;rounded=0;orthogonalLoop=1;jettySize=auto;html=1;exitX=0.423;exitY=-0.006;exitDx=0;exitDy=0;exitPerimeter=0;" edge="1" parent="WIyWlLk6GJQsqaUBKTNV-1" source="_3AJ94oyX9AFuhV5-iff-102">
          <mxGeometry relative="1" as="geometry">
            <mxPoint x="780" y="620" as="targetPoint" />
            <mxPoint x="948.2400000000001" y="800" as="sourcePoint" />
            <Array as="points">
              <mxPoint x="948" y="720" />
              <mxPoint x="780" y="720" />
              <mxPoint x="780" y="620" />
            </Array>
          </mxGeometry>
        </mxCell>
        <mxCell id="_3AJ94oyX9AFuhV5-iff-98" value="" style="html=1;verticalAlign=bottom;endArrow=open;dashed=1;endSize=8;curved=0;rounded=0;entryX=1.011;entryY=0.396;entryDx=0;entryDy=0;entryPerimeter=0;" edge="1" parent="WIyWlLk6GJQsqaUBKTNV-1" target="Y_zbtXDFNSpmOWqjWYgW-57">
          <mxGeometry relative="1" as="geometry">
            <mxPoint x="340" y="498" as="sourcePoint" />
            <mxPoint x="280" y="360" as="targetPoint" />
            <Array as="points">
              <mxPoint x="340" y="480" />
              <mxPoint x="310" y="480" />
              <mxPoint x="310" y="360" />
            </Array>
          </mxGeometry>
        </mxCell>
        <mxCell id="_3AJ94oyX9AFuhV5-iff-100" value="&lt;div&gt;+ name: sword&lt;/div&gt;&lt;div&gt;+ weight: 6&lt;/div&gt;&lt;div&gt;+ goldValue: 8&lt;br&gt;&lt;/div&gt;&lt;div&gt;+&amp;nbsp;damageValue: 40&lt;br&gt;&lt;/div&gt;&lt;div&gt;+ DamageType: PHYSICAL &lt;/div&gt;+ equipableOn: ARML, ARMR" style="rounded=1;whiteSpace=wrap;html=1;fillColor=#B9E0A5;" vertex="1" parent="WIyWlLk6GJQsqaUBKTNV-1">
          <mxGeometry x="40" y="860" width="185" height="120" as="geometry" />
        </mxCell>
        <mxCell id="_3AJ94oyX9AFuhV5-iff-101" value="&lt;div&gt;+ name: PlateArmor&lt;/div&gt;&lt;div&gt;+ weight: 7&lt;/div&gt;&lt;div&gt;+ goldValue: 15&lt;br&gt;&lt;/div&gt;&lt;div&gt;+ armorValue: 25&lt;br&gt;&lt;/div&gt;&lt;div&gt;+ DamageType: MAGIC&lt;/div&gt;&lt;div&gt;+ equipableOn:TORSO&lt;/div&gt;" style="rounded=1;whiteSpace=wrap;html=1;fillColor=#C4EDAF;" vertex="1" parent="WIyWlLk6GJQsqaUBKTNV-1">
          <mxGeometry x="630" y="800" width="142.5" height="120" as="geometry" />
        </mxCell>
        <mxCell id="_3AJ94oyX9AFuhV5-iff-102" value="&lt;div&gt;+ name: ManaPotion&lt;/div&gt;&lt;div&gt;+ weight: 2&lt;/div&gt;&lt;div&gt;+ goldValue: 12&lt;br&gt;&lt;/div&gt;&lt;div&gt;+ consumableValue: 25&lt;/div&gt;&lt;div&gt;+statType: MANA&lt;br&gt;&lt;/div&gt;" style="rounded=1;whiteSpace=wrap;html=1;fillColor=#B9E0A5;" vertex="1" parent="WIyWlLk6GJQsqaUBKTNV-1">
          <mxGeometry x="920" y="800" width="135" height="120" as="geometry" />
        </mxCell>
        <mxCell id="_3AJ94oyX9AFuhV5-iff-103" value="&lt;div&gt;+ name: HealthPotion&lt;/div&gt;&lt;div&gt;+ weight: 2&lt;/div&gt;&lt;div&gt;+ goldValue: 12&lt;/div&gt;&lt;div&gt;+ consumableValue: 20&lt;br&gt;&lt;/div&gt;&lt;div&gt;+ statType: HEALTH&lt;br&gt;&lt;/div&gt;" style="rounded=1;whiteSpace=wrap;html=1;fillColor=#B9E0A5;" vertex="1" parent="WIyWlLk6GJQsqaUBKTNV-1">
          <mxGeometry x="776" y="800" width="135" height="120" as="geometry" />
        </mxCell>
        <mxCell id="_3AJ94oyX9AFuhV5-iff-104" style="edgeStyle=orthogonalEdgeStyle;rounded=0;orthogonalLoop=1;jettySize=auto;html=1;entryX=0.553;entryY=0.998;entryDx=0;entryDy=0;entryPerimeter=0;exitX=0.554;exitY=0;exitDx=0;exitDy=0;exitPerimeter=0;" edge="1" parent="WIyWlLk6GJQsqaUBKTNV-1" source="_3AJ94oyX9AFuhV5-iff-101" target="Y_zbtXDFNSpmOWqjWYgW-7">
          <mxGeometry relative="1" as="geometry">
            <mxPoint x="560" y="670" as="targetPoint" />
            <mxPoint x="560" y="800.12" as="sourcePoint" />
            <Array as="points">
              <mxPoint x="709" y="720" />
              <mxPoint x="587" y="720" />
            </Array>
          </mxGeometry>
        </mxCell>
        <mxCell id="_3AJ94oyX9AFuhV5-iff-105" value="enum statType" style="swimlane;fontStyle=1;align=center;verticalAlign=top;childLayout=stackLayout;horizontal=1;startSize=26;horizontalStack=0;resizeParent=1;resizeParentMax=0;resizeLast=0;collapsible=1;marginBottom=0;whiteSpace=wrap;html=1;strokeColor=#000000;fillColor=#A9C4EB;swimlaneFillColor=#A9C4EB;" vertex="1" parent="WIyWlLk6GJQsqaUBKTNV-1">
          <mxGeometry x="70" y="410" width="190" height="56" as="geometry" />
        </mxCell>
        <mxCell id="_3AJ94oyX9AFuhV5-iff-106" value="&lt;div align=&quot;center&quot;&gt;HEALTH, MANA&lt;/div&gt;" style="text;html=1;align=center;verticalAlign=middle;resizable=0;points=[];autosize=1;strokeColor=#000000;fillColor=#A9C4EB;" vertex="1" parent="_3AJ94oyX9AFuhV5-iff-105">
          <mxGeometry y="26" width="190" height="30" as="geometry" />
        </mxCell>
        <mxCell id="_3AJ94oyX9AFuhV5-iff-107" value="" style="line;strokeWidth=1;fillColor=#A9C4EB;align=left;verticalAlign=middle;spacingTop=-1;spacingLeft=3;spacingRight=3;rotatable=0;labelPosition=right;points=[];portConstraint=eastwest;strokeColor=#A9C4EB;" vertex="1" parent="_3AJ94oyX9AFuhV5-iff-105">
          <mxGeometry y="56" width="190" as="geometry" />
        </mxCell>
        <mxCell id="_3AJ94oyX9AFuhV5-iff-109" value="" style="html=1;verticalAlign=bottom;endArrow=open;dashed=1;endSize=8;curved=0;rounded=0;exitX=0.385;exitY=-0.009;exitDx=0;exitDy=0;exitPerimeter=0;" edge="1" parent="WIyWlLk6GJQsqaUBKTNV-1" source="Y_zbtXDFNSpmOWqjWYgW-8">
          <mxGeometry relative="1" as="geometry">
            <mxPoint x="1081.52" y="467" as="sourcePoint" />
            <mxPoint x="260" y="440" as="targetPoint" />
            <Array as="points">
              <mxPoint x="772" y="440" />
            </Array>
          </mxGeometry>
        </mxCell>
        <mxCell id="_3AJ94oyX9AFuhV5-iff-112" value="&lt;font style=&quot;font-size: 14px;&quot;&gt;1...1&lt;/font&gt;" style="text;html=1;align=center;verticalAlign=middle;resizable=0;points=[];autosize=1;strokeColor=none;fillColor=none;" vertex="1" parent="WIyWlLk6GJQsqaUBKTNV-1">
          <mxGeometry x="310" y="10" width="50" height="30" as="geometry" />
        </mxCell>
        <mxCell id="_3AJ94oyX9AFuhV5-iff-113" value="" style="html=1;verticalAlign=bottom;endArrow=open;dashed=1;endSize=8;curved=0;rounded=0;exitX=-0.008;exitY=0.896;exitDx=0;exitDy=0;exitPerimeter=0;entryX=0.476;entryY=-0.008;entryDx=0;entryDy=0;entryPerimeter=0;" edge="1" parent="WIyWlLk6GJQsqaUBKTNV-1" source="76qIheIjIqnIHze1jOvI-32" target="_3AJ94oyX9AFuhV5-iff-35">
          <mxGeometry relative="1" as="geometry">
            <mxPoint x="640" y="100" as="sourcePoint" />
            <mxPoint x="160" y="230" as="targetPoint" />
            <Array as="points">
              <mxPoint x="620" y="100" />
              <mxPoint x="620" y="170" />
              <mxPoint x="160" y="170" />
            </Array>
          </mxGeometry>
        </mxCell>
        <mxCell id="_3AJ94oyX9AFuhV5-iff-115" value="&lt;div&gt;+ name: Shield&lt;/div&gt;&lt;div&gt;+ weight: 5&lt;/div&gt;&lt;div&gt;+ goldvalue: 12&lt;br&gt;&lt;/div&gt;&lt;div&gt;+ armorValue: 30&lt;br&gt;&lt;/div&gt;&lt;div&gt;+ DamageType: PHYSICAL &lt;/div&gt;+ equipableOn: ARML, ARMR" style="rounded=1;whiteSpace=wrap;html=1;fillColor=#C4EDAF;" vertex="1" parent="WIyWlLk6GJQsqaUBKTNV-1">
          <mxGeometry x="303.75" y="800" width="156.25" height="120" as="geometry" />
        </mxCell>
        <mxCell id="_3AJ94oyX9AFuhV5-iff-116" value="&lt;div&gt;+ name:Helmet&lt;/div&gt;&lt;div&gt;+ weight: 4&lt;br&gt;&lt;/div&gt;&lt;div&gt;+ goldValue: 20&lt;br&gt;&lt;/div&gt;&lt;div&gt;+ armorValue: 15&lt;br&gt;&lt;/div&gt;&lt;div&gt;+ DamageType: PHYSICAL&lt;br&gt;&lt;/div&gt;&lt;div&gt;+ equipableOn: HEAD&lt;br&gt;&lt;/div&gt;" style="rounded=1;whiteSpace=wrap;html=1;fillColor=#C4EDAF;" vertex="1" parent="WIyWlLk6GJQsqaUBKTNV-1">
          <mxGeometry x="470" y="800" width="152.5" height="120" as="geometry" />
        </mxCell>
        <mxCell id="_3AJ94oyX9AFuhV5-iff-117" value="&lt;div&gt;+ name:Bow&lt;/div&gt;&lt;div&gt;+ weight: 4&lt;br&gt;&lt;/div&gt;&lt;div&gt;+ goldValue: 20&lt;br&gt;&lt;/div&gt;&lt;div&gt;+&amp;nbsp;damageValue: 15&lt;br&gt;&lt;/div&gt;&lt;div&gt;+ DamageType: PHYSICAL &lt;/div&gt;+ equipableOn: ARML, ARMR" style="rounded=1;whiteSpace=wrap;html=1;fillColor=#B9E0A5;" vertex="1" parent="WIyWlLk6GJQsqaUBKTNV-1">
          <mxGeometry x="40" y="720" width="185" height="120" as="geometry" />
        </mxCell>
        <mxCell id="_3AJ94oyX9AFuhV5-iff-118" style="edgeStyle=orthogonalEdgeStyle;rounded=0;orthogonalLoop=1;jettySize=auto;html=1;entryX=0.32;entryY=1.022;entryDx=0;entryDy=0;entryPerimeter=0;exitX=1;exitY=0.42;exitDx=0;exitDy=0;exitPerimeter=0;" edge="1" parent="WIyWlLk6GJQsqaUBKTNV-1" source="_3AJ94oyX9AFuhV5-iff-117" target="76qIheIjIqnIHze1jOvI-26">
          <mxGeometry relative="1" as="geometry">
            <mxPoint x="280" y="660" as="targetPoint" />
            <mxPoint x="250" y="760" as="sourcePoint" />
            <Array as="points">
              <mxPoint x="280" y="760" />
              <mxPoint x="280" y="670" />
            </Array>
          </mxGeometry>
        </mxCell>
        <mxCell id="_3AJ94oyX9AFuhV5-iff-119" style="edgeStyle=orthogonalEdgeStyle;rounded=0;orthogonalLoop=1;jettySize=auto;html=1;entryX=0.553;entryY=0.998;entryDx=0;entryDy=0;entryPerimeter=0;exitX=0.46;exitY=-0.001;exitDx=0;exitDy=0;exitPerimeter=0;" edge="1" parent="WIyWlLk6GJQsqaUBKTNV-1" source="_3AJ94oyX9AFuhV5-iff-116" target="Y_zbtXDFNSpmOWqjWYgW-7">
          <mxGeometry relative="1" as="geometry">
            <mxPoint x="587" y="659" as="targetPoint" />
            <mxPoint x="550" y="790" as="sourcePoint" />
            <Array as="points">
              <mxPoint x="540" y="720" />
              <mxPoint x="587" y="720" />
            </Array>
          </mxGeometry>
        </mxCell>
        <mxCell id="_3AJ94oyX9AFuhV5-iff-120" style="edgeStyle=orthogonalEdgeStyle;rounded=0;orthogonalLoop=1;jettySize=auto;html=1;entryX=0.553;entryY=0.998;entryDx=0;entryDy=0;entryPerimeter=0;exitX=0.491;exitY=-0.02;exitDx=0;exitDy=0;exitPerimeter=0;" edge="1" parent="WIyWlLk6GJQsqaUBKTNV-1" source="_3AJ94oyX9AFuhV5-iff-115">
          <mxGeometry relative="1" as="geometry">
            <mxPoint x="587.5" y="658.9959999999998" as="targetPoint" />
            <mxPoint x="380" y="780" as="sourcePoint" />
            <Array as="points">
              <mxPoint x="381" y="770" />
              <mxPoint x="380" y="720" />
              <mxPoint x="587" y="720" />
            </Array>
          </mxGeometry>
        </mxCell>
        <mxCell id="_3AJ94oyX9AFuhV5-iff-121" value="" style="rounded=1;whiteSpace=wrap;html=1;fillColor=none;strokeColor=#545454;" vertex="1" parent="WIyWlLk6GJQsqaUBKTNV-1">
          <mxGeometry x="10" y="700" width="1070" height="300" as="geometry" />
        </mxCell>
      </root>
    </mxGraphModel>
  </diagram>
</mxfile>
